<?xml version="1.0" standalone="no"?>
<!DOCTYPE svg PUBLIC "-//W3C//DTD SVG 20010904//EN"
 "http://www.w3.org/TR/2001/REC-SVG-20010904/DTD/svg10.dtd">
<svg version="1.0" xmlns="http://www.w3.org/2000/svg"
 width="700.000000pt" height="700.000000pt" viewBox="0 0 700.000000 700.000000"
 preserveAspectRatio="xMidYMid meet">
<metadata>
Created by potrace 1.14, written by Peter Selinger 2001-2017
</metadata>
<g transform="translate(0.000000,700.000000) scale(0.100000,-0.100000)"
fill="#000000" stroke="none">
<path d="M2669 5763 c-71 -9 -94 -18 -129 -49 -94 -85 -73 -230 40 -287 l45
-22 875 1 876 0 44 22 c140 68 128 273 -19 323 -24 8 -269 12 -876 13 -463 0
-848 0 -856 -1z"/>
<path d="M2825 5223 c-45 -16 -80 -45 -103 -88 -14 -26 -16 -94 -18 -540 -1
-280 -4 -526 -8 -545 -12 -66 -38 -144 -63 -195 -14 -27 -219 -330 -455 -673
-262 -380 -442 -651 -462 -695 -43 -94 -59 -167 -59 -269 -1 -106 7 -157 38
-243 38 -104 81 -171 165 -255 111 -111 247 -178 397 -196 77 -9 2411 -9 2488
0 253 30 482 218 564 463 56 167 45 351 -29 510 -25 53 -117 193 -312 473 -25
36 -132 191 -238 345 -107 154 -227 327 -267 385 -99 143 -142 238 -158 351
-5 30 -9 279 -10 554 -1 393 -4 505 -14 525 -68 128 -231 139 -312 21 l-24
-35 -2 -525 c-1 -289 2 -548 7 -576 16 -96 20 -110 41 -175 43 -132 99 -227
310 -530 43 -61 188 -271 304 -440 29 -41 119 -172 201 -290 92 -134 155 -236
167 -270 28 -81 21 -168 -21 -253 -36 -73 -77 -112 -162 -154 l-55 -28 -1215
-1 c-1315 -1 -1267 -3 -1355 53 -123 78 -182 234 -141 375 11 39 63 123 193
311 98 141 204 294 235 339 31 46 150 218 263 383 348 506 343 487 345 1248 0
450 -2 512 -16 542 -42 90 -130 129 -219 98z"/>
<path d="M3457 3436 c-10 -8 -33 -54 -51 -103 -46 -123 -71 -169 -177 -328
-111 -166 -146 -234 -160 -311 -55 -295 205 -564 498 -516 223 37 376 225 368
452 -4 114 -27 168 -155 360 -109 165 -155 251 -189 353 -12 35 -31 74 -42 85
-22 25 -65 28 -92 8z"/>
</g>
</svg>
